<svg width="129" height="24" viewBox="0 0 129 24" fill="none" xmlns="http://www.w3.org/2000/svg">
<g clip-path="url(#clip0_2_8)">
<path d="M15.6722 1.7251C17.6674 1.7251 19.2889 3.34657 19.2889 5.34176V23.4251L12.0556 21.014H3.61667C2.95361 21.014 2.33275 20.8392 1.80231 20.5257L7.09469 16.4088L13.5746 11.3695L7.09469 6.33032L1.80231 2.21335C2.33275 1.8999 2.95361 1.7251 3.61667 1.7251H15.6722ZM9.64444 11.3695L5.69625 14.4377L0.235083 18.6812C0.0843889 18.2834 0 17.8494 0 17.3973V5.34176C0 4.88968 0.0843889 4.45568 0.235083 4.05785L5.69625 8.3014L9.64444 11.3695Z" fill="#6140FF"/>
<path d="M31.1028 10.581C33.113 11.152 34.2544 12.4314 34.2544 14.3047C34.2544 16.5208 32.3816 17.96 29.8228 17.96C28.0185 17.96 26.305 17.2746 25.2999 15.8354L27.4015 14.0535C27.9271 14.8533 28.9092 15.3098 29.9833 15.3098C30.7819 15.3098 31.3995 15.0361 31.3995 14.4876C31.3995 13.985 30.9424 13.7792 29.709 13.4365L28.9092 13.2082C26.8305 12.6602 25.7794 11.2889 25.8254 9.5075C25.8479 7.4283 27.6074 6.03508 30.0057 6.03508C31.6738 6.03508 32.9756 6.65205 33.9122 7.65715L32.1533 9.55293C31.5139 8.98195 30.7141 8.61625 29.8688 8.61625C29.1604 8.61625 28.6579 8.84453 28.6579 9.32465C28.6579 9.73578 28.9092 9.96405 30.0287 10.2838L31.1028 10.581ZM40.8582 6.03485C43.8511 6.03485 46.4783 7.9542 46.4783 11.6549C46.4783 11.9292 46.4783 12.2483 46.4328 12.7284H37.8884C38.0712 14.2591 39.419 15.1043 40.9272 15.1043C42.3435 15.1043 43.3716 14.4419 43.8741 13.6651L46.204 15.401C45.1535 16.9317 43.3031 17.9598 40.9042 17.9598C37.5002 17.9598 34.8501 15.6069 34.8501 11.9976C34.8501 8.61602 37.3858 6.03485 40.8582 6.03485ZM38.0028 10.6038H43.3486C43.0743 9.256 41.9323 8.61602 40.7674 8.61602C39.6019 8.61602 38.3001 9.21057 38.0028 10.6038ZM54.1786 6.03496C56.9432 6.03496 58.5877 8.04574 58.5877 11.015V17.7086H55.4579V11.5406C55.4579 9.89551 54.7501 8.89041 53.4477 8.89041C52.0085 8.89041 50.9114 9.94151 50.9114 12.1346V17.7086H47.7823V6.28624H50.9114V7.58861C51.506 6.67436 52.6939 6.03496 54.1786 6.03496ZM68.3905 7.56556V0.574707H71.5203V17.7086H68.3905V16.4292C67.888 17.1606 66.677 17.9598 65.101 17.9598C62.0621 17.9598 59.7322 15.2412 59.7322 11.9977C59.7322 8.75351 62.0621 6.03491 65.101 6.03491C66.677 6.03491 67.888 6.83473 68.3905 7.56556ZM65.7634 15.1044C67.4763 15.1044 68.6418 13.779 68.6418 11.9977C68.6418 10.2157 67.4763 8.89036 65.7634 8.89036C64.0504 8.89036 62.8849 10.2157 62.8849 11.9977C62.8849 13.779 64.0504 15.1044 65.7634 15.1044ZM78.4672 10.581C80.4774 11.152 81.6194 12.4314 81.6194 14.3047C81.6194 16.5208 79.7466 17.96 77.1873 17.96C75.3829 17.96 73.6694 17.2746 72.6643 15.8354L74.766 14.0535C75.2915 14.8533 76.2742 15.3098 77.3477 15.3098C78.147 15.3098 78.7639 15.0361 78.7639 14.4876C78.7639 13.985 78.3074 13.7792 77.0734 13.4365L76.2742 13.2082C74.195 12.6602 73.1445 11.2889 73.1899 9.5075C73.2129 7.4283 74.9718 6.03508 77.3707 6.03508C79.0382 6.03508 80.3406 6.65205 81.2773 7.65715L79.5178 9.55293C78.8784 8.98195 78.0785 8.61625 77.2333 8.61625C76.5255 8.61625 76.0229 8.84453 76.0229 9.32465C76.0229 9.73578 76.2742 9.96405 77.3931 10.2838L78.4672 10.581ZM89.3881 6.03491C92.4264 6.03491 94.7569 8.75351 94.7569 11.9977C94.7569 15.2412 92.4264 17.9598 89.3881 17.9598C87.812 17.9598 86.6011 17.1606 86.0755 16.4292V22.4834H82.9458V6.28618H86.0755V7.56556C86.6011 6.83473 87.812 6.03491 89.3881 6.03491ZM88.7027 15.1044C90.4162 15.1044 91.5812 13.779 91.5812 11.9977C91.5812 10.2157 90.4162 8.89036 88.7027 8.89036C86.9898 8.89036 85.8243 10.2157 85.8243 11.9977C85.8243 13.779 86.9898 15.1044 88.7027 15.1044ZM103.965 7.56556V6.28618H107.094V17.7086H103.965V16.4292C103.462 17.1606 102.251 17.9598 100.675 17.9598C97.6369 17.9598 95.3064 15.2412 95.3064 11.9977C95.3064 8.75351 97.6369 6.03491 100.675 6.03491C102.251 6.03491 103.462 6.83473 103.965 7.56556ZM101.338 15.1044C103.051 15.1044 104.216 13.779 104.216 11.9977C104.216 10.2157 103.051 8.89036 101.338 8.89036C99.6246 8.89036 98.4591 10.2157 98.4591 11.9977C98.4591 13.779 99.6246 15.1044 101.338 15.1044ZM112.259 8.1137C112.648 6.99418 113.813 6.14893 115.093 6.14893C115.412 6.14893 115.755 6.17193 116.143 6.28635V9.4615C115.664 9.30165 115.229 9.21023 114.727 9.21023C113.242 9.21023 112.259 10.3758 112.259 12.2485V17.7087H109.13V6.28635H112.259V8.1137ZM123.532 11.7717L128.8 17.7086H124.939L120.278 12.4543V17.7086H117.149V0.574765H120.278V9.07671C120.535 9.16526 120.809 9.21931 121.101 9.21931C122.403 9.21931 123.111 8.21421 123.111 6.56971V5.57611H126.241V7.09469C126.241 9.39009 125.255 11.1082 123.532 11.7717Z" fill="black"/>
</g>
<defs>
<clipPath id="clip0_2_8">
<rect width="129" height="24" fill="white"/>
</clipPath>
</defs>
</svg>
